HIERARCHY
ROOT boneTorso
{
	OFFSET 0.000000 -0.000000 0.798061
	CHANNELS 6 Xposition Yposition Zposition Xrotation Yrotation Zrotation
	JOINT boneHead
	{
		OFFSET 0.000000 0.000000 0.675000
		CHANNELS 3 Xrotation Yrotation Zrotation
		End Site
		{
			OFFSET 0.000000 -0.000000 0.500000
		}
	}
	JOINT boneLegRU
	{
		OFFSET 0.000000 0.125000 0.000000
		CHANNELS 6 Xposition Yposition Zposition Xrotation Yrotation Zrotation
		JOINT boneLegRD
		{
			OFFSET 0.000000 0.000000 -0.375000
			CHANNELS 3 Xrotation Yrotation Zrotation
			JOINT boneFootR
			{
				OFFSET 0.000000 0.000000 -0.375000
				CHANNELS 3 Xrotation Yrotation Zrotation
				End Site
				{
					OFFSET 0.000000 0.000000 -0.075000
				}
			}
		}
	}
	JOINT boneLegLU
	{
		OFFSET 0.000000 -0.125000 0.000000
		CHANNELS 6 Xposition Yposition Zposition Xrotation Yrotation Zrotation
		JOINT boneLegLD
		{
			OFFSET 0.000000 0.000000 -0.375000
			CHANNELS 3 Xrotation Yrotation Zrotation
			JOINT boneFootL
			{
				OFFSET 0.000000 0.000000 -0.375000
				CHANNELS 3 Xrotation Yrotation Zrotation
				End Site
				{
					OFFSET 0.000000 0.000000 -0.075000
				}
			}
		}
	}
	JOINT boneArmRU
	{
		OFFSET 0.000000 0.350000 0.675000
		CHANNELS 6 Xposition Yposition Zposition Xrotation Yrotation Zrotation
		JOINT boneArmRD
		{
			OFFSET 0.000000 0.000000 -0.375000
			CHANNELS 3 Xrotation Yrotation Zrotation
			End Site
			{
				OFFSET 0.000000 0.000000 -0.300000
			}
		}
	}
	JOINT boneArmLU
	{
		OFFSET 0.000000 -0.350000 0.675000
		CHANNELS 6 Xposition Yposition Zposition Xrotation Yrotation Zrotation
		JOINT boneArmLD
		{
			OFFSET 0.000000 0.000000 -0.375000
			CHANNELS 3 Xrotation Yrotation Zrotation
			End Site
			{
				OFFSET 0.000000 0.000000 -0.300000
			}
		}
		JOINT boneItemInHand
		{
			OFFSET 0.000000 0.000000 -0.673061
			CHANNELS 6 Xposition Yposition Zposition Xrotation Yrotation Zrotation
			End Site
			{
				OFFSET 0.000000 0.000000 -0.140000
			}
		}
	}
}
MOTION
Frames: 12
Frame Time: 0.100000
0.000000 -0.000000 0.798061 -0.000000 5.331929 0.000001 -0.000000 5.334995 0.000001 -0.000000 0.125000 -0.000000 -0.000026 -76.678873 -0.000035 -0.000028 77.487396 0.000038 0.000000 -0.214816 -0.000000 0.000000 -0.125000 0.000000 -0.000000 14.767405 0.000002 -0.000003 41.502842 0.000007 -0.000000 9.539432 0.000001 0.000000 0.350000 0.675000 -0.000037 84.790071 0.000045 0.000005 -109.012620 0.000005 -0.000000 -0.350000 0.675000 -0.000000 -27.460050 -0.000000 0.000004 -103.041477 0.000008 0.113675 0.136115 -0.677060 0.000000 22.128122 -0.000001 
0.000000 -0.000000 0.815713 -0.000000 6.558564 0.000001 -0.000000 5.334995 0.000001 -0.000000 0.125000 0.000000 -0.000002 -39.263441 -0.000007 -0.000001 15.510243 0.000002 0.000000 7.379080 0.000000 -0.000000 -0.125000 0.000000 -0.000000 2.088202 0.000000 -0.000017 72.044863 0.000025 -0.000000 9.539432 0.000001 -0.000000 0.350000 0.675000 0.000002 39.483346 -0.000003 -0.000077 -89.923552 -0.000551 0.000000 -0.350000 0.675000 0.000001 -12.935348 0.000002 0.000010 -78.972737 0.000006 0.113675 0.136115 -0.677060 -0.000000 6.376784 -0.000003 
0.000000 -0.000000 0.775584 -0.000000 3.819243 0.000001 -0.000000 4.114832 0.000001 -0.000000 0.125000 0.000000 -0.000001 -25.752675 -0.000004 -0.000000 6.147678 0.000002 0.000000 14.972975 0.000002 0.000000 -0.125000 0.000000 -0.000000 -10.056320 -0.000001 0.000036 105.452486 -0.000030 -0.000000 9.539432 0.000001 0.000000 0.350000 0.675000 0.000003 19.606625 -0.000005 0.000003 -75.158193 0.000002 0.000000 -0.350000 0.675000 0.000001 4.263480 0.000004 0.000009 -68.912996 0.000006 0.113675 0.136115 -0.677060 -0.000001 -8.082724 -0.000005 
0.000000 -0.000000 0.789235 -0.000000 3.819243 0.000001 -0.000000 2.894667 0.000000 -0.000000 0.125000 0.000000 -0.000000 1.339103 0.000000 -0.000000 4.811626 0.000001 -0.000000 -10.183734 -0.000002 -0.000000 -0.125000 0.000000 -0.000002 -40.364557 -0.000007 0.000024 117.892740 -0.000016 -0.000000 9.539432 0.000001 -0.000000 0.350000 0.675000 0.000003 3.957071 -0.000002 -0.000000 -63.981326 -0.000002 -0.000000 -0.350000 0.675000 0.000000 24.066785 0.000007 0.000009 -36.796620 0.000005 0.113674 0.136115 -0.677060 -0.000004 -27.886028 -0.000008 
-0.000000 -0.000000 0.789235 -0.000000 1.978966 0.000000 -0.000000 3.509841 0.000000 -0.000000 0.125000 0.000000 -0.000000 -0.056584 0.000000 -0.000002 38.292930 0.000007 -0.000000 -12.380000 -0.000002 -0.000000 -0.125000 0.000000 -0.000011 -65.960394 -0.000018 0.000038 104.487612 -0.000032 -0.000000 9.539432 0.000001 -0.000000 0.350000 0.675000 -0.000001 -22.144105 -0.000000 -0.000001 -76.085425 -0.000003 -0.000000 -0.350000 0.675000 -0.000004 53.510427 0.000013 0.000008 -61.139701 0.000006 0.113674 0.136115 -0.677060 -0.000012 -55.489393 -0.000018 
-0.000000 -0.000000 0.830423 -0.000000 1.978966 0.000000 -0.000000 4.761079 0.000001 -0.000000 0.125000 0.000000 -0.000001 21.957907 0.000003 -0.000001 18.215548 0.000003 -0.000000 8.603601 0.000001 -0.000000 -0.125000 0.000000 -0.000025 -76.711938 -0.000035 -0.000031 78.790146 0.000041 -0.000000 -4.934451 -0.000001 -0.000000 0.350000 0.675000 -0.000001 -29.014568 -0.000001 0.000012 -113.190209 0.000015 0.000000 -0.350000 0.675000 -0.000017 73.883577 0.000029 0.000010 -82.639647 0.000005 0.113674 0.136115 -0.677060 -0.000037 -75.862542 -0.000046 
-0.000000 -0.000000 0.792177 -0.000000 1.978966 0.000000 -0.000000 6.318469 0.000001 0.000000 0.125000 0.000000 -0.000001 14.553453 0.000002 -0.000004 46.765434 0.000009 -0.000000 4.881473 0.000001 -0.000000 -0.125000 -0.000000 -0.000004 -50.353299 -0.000010 -0.000002 34.914530 0.000005 -0.000000 0.190622 0.000000 -0.000000 0.350000 0.675000 -0.000000 -11.515955 0.000002 0.000010 -128.661271 0.000012 0.000000 -0.350000 0.675000 -0.000034 80.693685 0.000048 0.000005 -106.090733 0.000009 0.113674 0.136115 -0.677060 -0.000078 -82.672651 -0.000090 
-0.000000 -0.000000 0.742163 -0.000000 1.978966 0.000000 -0.000000 7.239755 0.000001 0.000000 0.125000 0.000000 -0.000000 7.276906 0.000001 -0.000043 80.964769 0.000054 -0.000000 0.847135 0.000000 -0.000000 -0.125000 0.000000 -0.000001 -31.143938 -0.000005 -0.000000 14.269862 0.000002 -0.000000 12.125051 0.000002 -0.000000 0.350000 0.675000 -0.000000 0.703045 0.000003 0.000014 -106.289983 0.000017 -0.000000 -0.350000 0.675000 -0.000004 53.747722 0.000013 0.000012 -85.696833 0.000004 0.113675 0.136115 -0.677060 -0.000012 -55.726687 -0.000018 
0.000000 -0.000000 0.784528 -0.000000 3.363904 0.000000 -0.000000 7.070450 0.000001 -0.000000 0.125000 0.000000 -0.000000 -10.753343 -0.000001 0.000023 120.079261 -0.000015 -0.000000 0.362702 0.000000 0.000000 -0.125000 0.000000 -0.000001 -21.686388 -0.000003 -0.000001 17.883459 0.000002 -0.000000 0.306980 0.000000 0.000000 0.350000 0.675000 -0.000001 17.933865 0.000006 0.000099 -92.355912 0.000116 -0.000000 -0.350000 0.675000 -0.000001 32.691966 0.000008 0.000013 -85.930036 0.000004 0.113674 0.136115 -0.677060 -0.000005 -36.055869 -0.000010 
0.000000 -0.000000 0.759109 -0.000000 3.363904 0.000000 -0.000000 6.593551 0.000001 -0.000000 0.125000 0.000000 -0.000003 -41.758902 -0.000007 0.000029 112.267949 -0.000021 -0.000000 0.024901 0.000000 -0.000000 -0.125000 0.000000 -0.000000 -13.908140 -0.000002 -0.000002 36.425979 0.000006 -0.000001 -24.922947 -0.000004 -0.000000 0.350000 0.675000 -0.000002 38.179661 0.000010 -0.000037 -83.559305 -0.000041 0.000000 -0.350000 0.675000 0.000001 -7.300402 0.000002 0.000024 -87.938044 0.000007 0.113675 0.136115 -0.677060 -0.000000 3.936498 -0.000003 
0.000000 -0.000000 0.793001 -0.000000 3.363904 0.000000 -0.000000 5.981201 0.000001 -0.000000 0.125000 0.000000 -0.000013 -67.754452 -0.000020 0.000088 95.616426 -0.000087 -0.000000 -0.151280 0.000000 0.000000 -0.125000 0.000000 -0.000000 12.901527 0.000002 -0.000000 10.180160 0.000001 -0.000000 -8.062822 -0.000003 0.000000 0.350000 0.675000 -0.000005 52.573510 0.000014 -0.000005 -81.154580 -0.000009 0.000000 -0.350000 0.675000 -0.000000 -25.510593 -0.000000 -0.000001 -92.823152 0.000013 0.113675 0.136115 -0.677060 0.000000 22.146689 -0.000000 
0.000000 -0.000000 0.797649 -0.000000 4.347917 0.000000 -0.000000 5.504302 0.000001 -0.000000 0.125000 -0.000000 -0.000023 -75.082924 -0.000031 -0.000050 82.152545 0.000062 -0.000000 -0.208227 0.000000 0.000000 -0.125000 0.000000 -0.000001 27.039715 0.000004 -0.000000 6.106958 0.000000 -0.000000 9.243527 0.000001 -0.000000 0.350000 0.675000 -0.000009 62.084384 0.000019 0.000022 -97.934032 0.000027 -0.000000 -0.350000 0.675000 -0.000001 -33.418036 -0.000001 0.000005 -103.754310 0.000009 0.113675 0.136115 -0.677060 0.000000 29.070122 0.000001 
